<?xml version="1.0" standalone="no"?>
<!DOCTYPE svg PUBLIC "-//W3C//DTD SVG 20010904//EN"
 "http://www.w3.org/TR/2001/REC-SVG-20010904/DTD/svg10.dtd">
<svg version="1.0" xmlns="http://www.w3.org/2000/svg"
 width="100.000000pt" height="100.000000pt" viewBox="0 0 100.000000 100.000000"
 preserveAspectRatio="xMidYMid meet">
<metadata>
Created by potrace 1.14, written by Peter Selinger 2001-2017
</metadata>
<g transform="translate(0.000000,100.000000) scale(0.100000,-0.100000)"
fill="#000000" stroke="none">
<path d="M410 922 c-42 -20 -142 -68 -223 -106 -146 -69 -148 -70 -145 -100
l3 -31 94 -5 c66 -3 96 -9 99 -18 2 -7 -5 -16 -17 -19 -21 -5 -21 -10 -21
-214 l0 -209 300 0 300 0 0 209 c0 204 0 209 -21 214 -12 3 -19 12 -17 19 3 9
33 15 99 18 l94 5 3 31 c3 29 -1 32 -75 67 -43 19 -125 58 -183 85 -164 77
-198 92 -207 91 -4 0 -42 -17 -83 -37z m-3 -287 c13 -3 34 -7 48 -10 l25 -5 0
-179 0 -179 -39 14 c-33 11 -78 18 -148 23 -10 1 -13 43 -13 177 l0 176 52 -6
c28 -4 62 -9 75 -11z m313 -160 c0 -133 -3 -175 -12 -176 -86 -7 -114 -11
-148 -23 l-40 -14 0 178 c0 201 -8 184 90 196 25 4 47 8 49 10 2 2 17 4 33 4
l28 0 0 -175z"/>
<path d="M120 430 c0 -203 1 -210 20 -210 19 0 20 7 20 210 0 203 -1 210 -20
210 -19 0 -20 -7 -20 -210z"/>
<path d="M840 430 c0 -203 1 -210 20 -210 19 0 20 7 20 210 0 203 -1 210 -20
210 -19 0 -20 -7 -20 -210z"/>
<path d="M60 160 c-11 -11 -20 -33 -20 -50 l0 -30 460 0 460 0 0 30 c0 17 -9
39 -20 50 -19 19 -33 20 -440 20 -407 0 -421 -1 -440 -20z"/>
</g>
</svg>
